<svg xmlns="http://www.w3.org/2000/svg" width="200" height="530" viewBox="0 0 200 530">
<!-- 1144 Fifteenth: a blue glass tower whose crown is cut on a long slant -->
<path d="M24,520 L24,110 L176,14 L176,520 Z" fill="#4f8fd0"/>
<path d="M24,520 L24,110 L84,72 L84,520 Z" fill="#2f66a8"/>
<path d="M124,47 L176,14 L176,520 L124,520 Z" fill="#7fb8ee"/>
<g fill="#1f4c86">
<rect x="24" y="150" width="152" height="6"/><rect x="24" y="190" width="152" height="6"/><rect x="24" y="230" width="152" height="6"/><rect x="24" y="270" width="152" height="6"/><rect x="24" y="310" width="152" height="6"/><rect x="24" y="350" width="152" height="6"/><rect x="24" y="390" width="152" height="6"/><rect x="24" y="430" width="152" height="6"/><rect x="24" y="470" width="152" height="6"/>
</g>
<path d="M24,110 L176,14 L176,26 L24,122 Z" fill="#d6ecff"/>
<rect x="24" y="496" width="152" height="24" fill="#22364f"/>
</svg>
