<svg xmlns="http://www.w3.org/2000/svg" width="300" height="340" viewBox="0 0 300 340">
<g stroke="#22223b" stroke-width="12" stroke-linejoin="round" fill="#1f5fd0">
<path d="M236,196 Q286,196 274,262 Q262,226 230,220 Z"/>
<path d="M200,232 L234,240 L228,284 L242,316 L214,316 L208,286 Z"/>
<path d="M168,238 L198,246 L196,288 L208,316 L182,316 L178,288 Z"/>
<ellipse cx="172" cy="176" rx="72" ry="44" transform="rotate(-40 172 176)"/>
<circle cx="206" cy="210" r="46"/>
<path d="M116,152 L160,118 L130,50 L92,70 Z"/>
<path d="M132,52 L108,24 L102,44 L58,72 L62,92 L98,88 L122,76 Z"/>
<path d="M114,150 L98,172 L60,152 L46,174 L34,164 L54,132 L100,144 Z"/>
<path d="M134,172 L116,198 L78,192 L66,216 L54,208 L68,176 L116,172 Z"/>
</g>
<g fill="#1f5fd0">
<path d="M236,196 Q286,196 274,262 Q262,226 230,220 Z"/>
<path d="M200,232 L234,240 L228,284 L242,316 L214,316 L208,286 Z"/>
<path d="M168,238 L198,246 L196,288 L208,316 L182,316 L178,288 Z"/>
<ellipse cx="172" cy="176" rx="72" ry="44" transform="rotate(-40 172 176)"/>
<circle cx="206" cy="210" r="46"/>
<path d="M116,152 L160,118 L130,50 L92,70 Z"/>
<path d="M132,52 L108,24 L102,44 L58,72 L62,92 L98,88 L122,76 Z"/>
<path d="M114,150 L98,172 L60,152 L46,174 L34,164 L54,132 L100,144 Z"/>
<path d="M134,172 L116,198 L78,192 L66,216 L54,208 L68,176 L116,172 Z"/>
</g>
<path d="M128,46 L146,58 L138,70 L154,82 L146,96 L162,110 L156,122" fill="none" stroke="#143f94" stroke-width="9" stroke-linejoin="round" stroke-linecap="round"/>
<path d="M150,160 Q170,170 176,196 M186,150 Q204,170 200,196 M170,206 Q190,214 196,236 M214,186 Q226,206 222,230" fill="none" stroke="#143f94" stroke-width="4" stroke-linecap="round"/>
<path d="M130,128 Q112,104 112,78" fill="none" stroke="#5c8ff0" stroke-width="6" stroke-linecap="round"/>
<circle cx="96" cy="60" r="9" fill="#ffb347"/>
<circle cx="96" cy="60" r="5.5" fill="#ff1f3d"/>
<rect x="150" y="314" width="126" height="16" fill="#9aa3b5" stroke="#22223b" stroke-width="5" stroke-linejoin="round"/>
</svg>
